<svg width="1304" height="535" viewBox="0 0 1304 535" fill="none" xmlns="http://www.w3.org/2000/svg">
<path d="M2 475.833C218.667 105.46 435.333 42.1067 652 285.773C868.667 529.44 1085.33 592.793 1302 475.833" stroke="url(#paint0_linear_36_3)" stroke-width="3" stroke-linecap="round" stroke-dasharray="34 39"/>
<path opacity="0.97" d="M2 459.751C218.667 100.099 435.333 42.1067 652 285.773C868.667 529.44 1085.33 587.433 1302 459.751" stroke="url(#paint1_linear_36_3)" stroke-width="3" stroke-linecap="round" stroke-dasharray="97 15"/>
<path opacity="0.93" d="M2 443.669C218.667 94.7385 435.333 42.1065 652 285.773C868.667 529.44 1085.33 582.072 1302 443.669" stroke="url(#paint2_linear_36_3)" stroke-width="3" stroke-linecap="round" stroke-dasharray="3 23"/>
<path opacity="0.9" d="M2 427.587C218.667 89.3779 435.333 42.1066 652 285.773C868.667 529.44 1085.33 576.711 1302 427.587" stroke="url(#paint3_linear_36_3)" stroke-width="3" stroke-linecap="round" stroke-dasharray="45 10"/>
<path opacity="0.87" d="M2 411.505C218.667 84.0173 435.333 42.1066 652 285.773C868.667 529.44 1085.33 571.351 1302 411.505" stroke="url(#paint4_linear_36_3)" stroke-width="3" stroke-linecap="round" stroke-dasharray="99 4"/>
<path opacity="0.84" d="M2 395.423C218.667 78.6567 435.333 42.1067 652 285.773C868.667 529.44 1085.33 565.99 1302 395.423" stroke="url(#paint5_linear_36_3)" stroke-width="3" stroke-linecap="round" stroke-dasharray="12 23"/>
<path opacity="0.8" d="M2 379.341C218.667 73.2961 435.333 42.1067 652 285.773C868.667 529.44 1085.33 560.629 1302 379.341" stroke="url(#paint6_linear_36_3)" stroke-width="3" stroke-linecap="round" stroke-dasharray="71 38"/>
<path opacity="0.77" d="M2 363.259C218.667 67.9352 435.333 42.1065 652 285.773C868.667 529.44 1085.33 555.269 1302 363.259" stroke="url(#paint7_linear_36_3)" stroke-width="3" stroke-linecap="round" stroke-dasharray="94 67"/>
<path opacity="0.74" d="M2 347.177C218.667 62.5747 435.333 42.1067 652 285.773C868.667 529.44 1085.33 549.908 1302 347.177" stroke="url(#paint8_linear_36_3)" stroke-width="3" stroke-linecap="round" stroke-dasharray="15 18"/>
<path opacity="0.71" d="M2 331.095C218.667 57.214 435.333 42.1067 652 285.773C868.667 529.44 1085.33 544.547 1302 331.095" stroke="url(#paint9_linear_36_3)" stroke-width="3" stroke-linecap="round" stroke-dasharray="56 60"/>
<path opacity="0.67" d="M2 315.013C218.667 51.8534 435.333 42.1067 652 285.773C868.667 529.44 1085.33 539.187 1302 315.013" stroke="url(#paint10_linear_36_3)" stroke-width="3" stroke-linecap="round" stroke-dasharray="66 38"/>
<path opacity="0.64" d="M2 298.931C218.667 46.4926 435.333 42.1066 652 285.773C868.667 529.44 1085.33 533.826 1302 298.931" stroke="url(#paint11_linear_36_3)" stroke-width="3" stroke-linecap="round" stroke-dasharray="43 103"/>
<path opacity="0.61" d="M2 282.849C218.667 41.1319 435.333 42.1066 652 285.773C868.667 529.44 1085.33 528.465 1302 282.849" stroke="url(#paint12_linear_36_3)" stroke-width="3" stroke-linecap="round" stroke-dasharray="48 78"/>
<path opacity="0.57" d="M2 266.767C218.667 35.7714 435.333 42.1067 652 285.773C868.667 529.44 1085.33 523.105 1302 266.767" stroke="url(#paint13_linear_36_3)" stroke-width="3" stroke-linecap="round" stroke-dasharray="83 25"/>
<path opacity="0.54" d="M2 250.685C218.667 30.4107 435.333 42.1067 652 285.773C868.667 529.44 1085.33 517.744 1302 250.685" stroke="url(#paint14_linear_36_3)" stroke-width="3" stroke-linecap="round" stroke-dasharray="53 82"/>
<path opacity="0.51" d="M2 234.603C218.667 25.0499 435.333 42.1065 652 285.773C868.667 529.44 1085.33 512.383 1302 234.603" stroke="url(#paint15_linear_36_3)" stroke-width="3" stroke-linecap="round" stroke-dasharray="76 83"/>
<path opacity="0.48" d="M2 218.521C218.667 19.6894 435.333 42.1067 652 285.773C868.667 529.44 1085.33 507.023 1302 218.521" stroke="url(#paint16_linear_36_3)" stroke-width="3" stroke-linecap="round" stroke-dasharray="62 62"/>
<path opacity="0.44" d="M2 202.439C218.667 14.3287 435.333 42.1067 652 285.773C868.667 529.44 1085.33 501.662 1302 202.439" stroke="url(#paint17_linear_36_3)" stroke-width="3" stroke-linecap="round" stroke-dasharray="35 83"/>
<path opacity="0.41" d="M2 186.357C218.667 8.96795 435.333 42.1066 652 285.773C868.667 529.44 1085.33 496.301 1302 186.357" stroke="url(#paint18_linear_36_3)" stroke-width="3" stroke-linecap="round" stroke-dasharray="33 30"/>
<path opacity="0.38" d="M2 170.275C218.667 3.60721 435.333 42.1065 652 285.773C868.667 529.44 1085.33 490.941 1302 170.275" stroke="url(#paint19_linear_36_3)" stroke-width="3" stroke-linecap="round" stroke-dasharray="89 105"/>
<path opacity="0.34" d="M2 154.193C218.667 -1.75333 435.333 42.1067 652 285.773C868.667 529.44 1085.33 485.58 1302 154.193" stroke="url(#paint20_linear_36_3)" stroke-width="3" stroke-linecap="round" stroke-dasharray="63 86"/>
<path opacity="0.31" d="M2 138.111C218.667 -7.11412 435.333 42.1065 652 285.773C868.667 529.44 1085.33 480.219 1302 138.111" stroke="url(#paint21_linear_36_3)" stroke-width="3" stroke-linecap="round" stroke-dasharray="36 44"/>
<path opacity="0.28" d="M2 122.029C218.667 -12.4747 435.333 42.1067 652 285.773C868.667 529.44 1085.33 474.859 1302 122.029" stroke="url(#paint22_linear_36_3)" stroke-width="3" stroke-linecap="round" stroke-dasharray="30 5"/>
<path opacity="0.25" d="M2 105.947C218.667 -17.8355 435.333 42.1065 652 285.773C868.667 529.44 1085.33 469.498 1302 105.947" stroke="url(#paint23_linear_36_3)" stroke-width="3" stroke-linecap="round" stroke-dasharray="83 95"/>
<path opacity="0.21" d="M2 89.8652C218.667 -23.1961 435.333 42.1065 652 285.773C868.667 529.44 1085.33 464.137 1302 89.8652" stroke="url(#paint24_linear_36_3)" stroke-width="3" stroke-linecap="round" stroke-dasharray="21 93"/>
<path opacity="0.18" d="M2 73.7833C218.667 -28.5567 435.333 42.1066 652 285.773C868.667 529.44 1085.33 458.777 1302 73.7833" stroke="url(#paint25_linear_36_3)" stroke-width="3" stroke-linecap="round" stroke-dasharray="39 50"/>
<path opacity="0.15" d="M2 57.7012C218.667 -33.9175 435.333 42.1065 652 285.773C868.667 529.44 1085.33 453.416 1302 57.7012" stroke="url(#paint26_linear_36_3)" stroke-width="3" stroke-linecap="round" stroke-dasharray="64 7"/>
<path opacity="0.12" d="M2 41.6192C218.667 -39.2782 435.333 42.1065 652 285.773C868.667 529.44 1085.33 448.055 1302 41.6192" stroke="url(#paint27_linear_36_3)" stroke-width="3" stroke-linecap="round" stroke-dasharray="102 98"/>
<path opacity="0.08" d="M2 25.5373C218.667 -44.6387 435.333 42.1066 652 285.773C868.667 529.44 1085.33 442.695 1302 25.5373" stroke="url(#paint28_linear_36_3)" stroke-width="3" stroke-linecap="round" stroke-dasharray="46 60"/>
<defs>
<linearGradient id="paint0_linear_36_3" x1="652" y1="140.734" x2="652" y2="532.733" gradientUnits="userSpaceOnUse">
<stop stop-color="#1F89DB"/>
<stop offset="1" stop-color="#F42A8B"/>
</linearGradient>
<linearGradient id="paint1_linear_36_3" x1="652" y1="138.156" x2="652" y2="525.603" gradientUnits="userSpaceOnUse">
<stop stop-color="#1F89DB"/>
<stop offset="1" stop-color="#F42A8B"/>
</linearGradient>
<linearGradient id="paint2_linear_36_3" x1="652" y1="135.485" x2="652" y2="518.873" gradientUnits="userSpaceOnUse">
<stop stop-color="#1F89DB"/>
<stop offset="1" stop-color="#F42A8B"/>
</linearGradient>
<linearGradient id="paint3_linear_36_3" x1="652" y1="132.716" x2="652" y2="512.51" gradientUnits="userSpaceOnUse">
<stop stop-color="#1F89DB"/>
<stop offset="1" stop-color="#F42A8B"/>
</linearGradient>
<linearGradient id="paint4_linear_36_3" x1="652" y1="129.843" x2="652" y2="506.486" gradientUnits="userSpaceOnUse">
<stop stop-color="#1F89DB"/>
<stop offset="1" stop-color="#F42A8B"/>
</linearGradient>
<linearGradient id="paint5_linear_36_3" x1="652" y1="126.86" x2="652" y2="500.773" gradientUnits="userSpaceOnUse">
<stop stop-color="#1F89DB"/>
<stop offset="1" stop-color="#F42A8B"/>
</linearGradient>
<linearGradient id="paint6_linear_36_3" x1="652" y1="123.761" x2="652" y2="495.349" gradientUnits="userSpaceOnUse">
<stop stop-color="#1F89DB"/>
<stop offset="1" stop-color="#F42A8B"/>
</linearGradient>
<linearGradient id="paint7_linear_36_3" x1="652" y1="120.538" x2="652" y2="490.192" gradientUnits="userSpaceOnUse">
<stop stop-color="#1F89DB"/>
<stop offset="1" stop-color="#F42A8B"/>
</linearGradient>
<linearGradient id="paint8_linear_36_3" x1="652" y1="117.185" x2="652" y2="485.282" gradientUnits="userSpaceOnUse">
<stop stop-color="#1F89DB"/>
<stop offset="1" stop-color="#F42A8B"/>
</linearGradient>
<linearGradient id="paint9_linear_36_3" x1="652" y1="113.692" x2="652" y2="480.603" gradientUnits="userSpaceOnUse">
<stop stop-color="#1F89DB"/>
<stop offset="1" stop-color="#F42A8B"/>
</linearGradient>
<linearGradient id="paint10_linear_36_3" x1="652" y1="110.052" x2="652" y2="476.138" gradientUnits="userSpaceOnUse">
<stop stop-color="#1F89DB"/>
<stop offset="1" stop-color="#F42A8B"/>
</linearGradient>
<linearGradient id="paint11_linear_36_3" x1="652" y1="106.255" x2="652" y2="471.873" gradientUnits="userSpaceOnUse">
<stop stop-color="#1F89DB"/>
<stop offset="1" stop-color="#F42A8B"/>
</linearGradient>
<linearGradient id="paint12_linear_36_3" x1="652" y1="102.289" x2="652" y2="467.795" gradientUnits="userSpaceOnUse">
<stop stop-color="#1F89DB"/>
<stop offset="1" stop-color="#F42A8B"/>
</linearGradient>
<linearGradient id="paint13_linear_36_3" x1="652" y1="98.145" x2="652" y2="463.892" gradientUnits="userSpaceOnUse">
<stop stop-color="#1F89DB"/>
<stop offset="1" stop-color="#F42A8B"/>
</linearGradient>
<linearGradient id="paint14_linear_36_3" x1="652" y1="93.8091" x2="652" y2="460.153" gradientUnits="userSpaceOnUse">
<stop stop-color="#1F89DB"/>
<stop offset="1" stop-color="#F42A8B"/>
</linearGradient>
<linearGradient id="paint15_linear_36_3" x1="652" y1="89.2678" x2="652" y2="456.568" gradientUnits="userSpaceOnUse">
<stop stop-color="#1F89DB"/>
<stop offset="1" stop-color="#F42A8B"/>
</linearGradient>
<linearGradient id="paint16_linear_36_3" x1="652" y1="84.5068" x2="652" y2="453.127" gradientUnits="userSpaceOnUse">
<stop stop-color="#1F89DB"/>
<stop offset="1" stop-color="#F42A8B"/>
</linearGradient>
<linearGradient id="paint17_linear_36_3" x1="652" y1="79.5093" x2="652" y2="449.822" gradientUnits="userSpaceOnUse">
<stop stop-color="#1F89DB"/>
<stop offset="1" stop-color="#F42A8B"/>
</linearGradient>
<linearGradient id="paint18_linear_36_3" x1="652" y1="74.2571" x2="652" y2="446.645" gradientUnits="userSpaceOnUse">
<stop stop-color="#1F89DB"/>
<stop offset="1" stop-color="#F42A8B"/>
</linearGradient>
<linearGradient id="paint19_linear_36_3" x1="652" y1="68.7305" x2="652" y2="443.588" gradientUnits="userSpaceOnUse">
<stop stop-color="#1F89DB"/>
<stop offset="1" stop-color="#F42A8B"/>
</linearGradient>
<linearGradient id="paint20_linear_36_3" x1="652" y1="62.9075" x2="652" y2="440.646" gradientUnits="userSpaceOnUse">
<stop stop-color="#1F89DB"/>
<stop offset="1" stop-color="#F42A8B"/>
</linearGradient>
<linearGradient id="paint21_linear_36_3" x1="652" y1="56.7632" x2="652" y2="437.811" gradientUnits="userSpaceOnUse">
<stop stop-color="#1F89DB"/>
<stop offset="1" stop-color="#F42A8B"/>
</linearGradient>
<linearGradient id="paint22_linear_36_3" x1="652" y1="50.2708" x2="652" y2="435.079" gradientUnits="userSpaceOnUse">
<stop stop-color="#1F89DB"/>
<stop offset="1" stop-color="#F42A8B"/>
</linearGradient>
<linearGradient id="paint23_linear_36_3" x1="652" y1="43.3992" x2="652" y2="432.443" gradientUnits="userSpaceOnUse">
<stop stop-color="#1F89DB"/>
<stop offset="1" stop-color="#F42A8B"/>
</linearGradient>
<linearGradient id="paint24_linear_36_3" x1="652" y1="36.1147" x2="652" y2="429.898" gradientUnits="userSpaceOnUse">
<stop stop-color="#1F89DB"/>
<stop offset="1" stop-color="#F42A8B"/>
</linearGradient>
<linearGradient id="paint25_linear_36_3" x1="652" y1="28.3789" x2="652" y2="427.44" gradientUnits="userSpaceOnUse">
<stop stop-color="#1F89DB"/>
<stop offset="1" stop-color="#F42A8B"/>
</linearGradient>
<linearGradient id="paint26_linear_36_3" x1="652" y1="20.1482" x2="652" y2="425.064" gradientUnits="userSpaceOnUse">
<stop stop-color="#1F89DB"/>
<stop offset="1" stop-color="#F42A8B"/>
</linearGradient>
<linearGradient id="paint27_linear_36_3" x1="652" y1="11.3738" x2="652" y2="422.767" gradientUnits="userSpaceOnUse">
<stop stop-color="#1F89DB"/>
<stop offset="1" stop-color="#F42A8B"/>
</linearGradient>
<linearGradient id="paint28_linear_36_3" x1="652" y1="2" x2="652" y2="420.545" gradientUnits="userSpaceOnUse">
<stop stop-color="#1F89DB"/>
<stop offset="1" stop-color="#F42A8B"/>
</linearGradient>
</defs>
</svg>
