<svg version="1.1" id="Layer_1" xmlns="http://www.w3.org/2000/svg" xmlns:xlink="http://www.w3.org/1999/xlink" x="0px" y="0px"
	 width="100%" viewBox="0 0 580 569" enable-background="new 0 0 580 569" xml:space="preserve">
<path fill="#021F3D" opacity="1.000000" stroke="none" 
	d="
M350.000000,570.000000 
	C233.333328,570.000000 117.166664,570.000000 1.000000,570.000000 
	C1.000000,380.333344 1.000000,190.666672 1.000000,1.000000 
	C194.333328,1.000000 387.666656,1.000000 581.000000,1.000000 
	C581.000000,190.666672 581.000000,380.333344 581.000000,570.000000 
	C504.166656,570.000000 427.333344,570.000000 350.000000,570.000000 
M239.454422,412.041229 
	C239.230331,412.339447 239.006241,412.637695 238.377579,413.061066 
	C238.113586,413.215515 237.963104,413.444519 237.409363,414.006714 
	C237.183426,414.312592 236.957489,414.618469 236.156570,415.226288 
	C231.065308,420.475647 225.974045,425.725037 220.337952,431.260101 
	C220.005280,431.768677 219.672607,432.277283 218.846451,433.101959 
	C218.237839,434.082520 217.629227,435.063080 216.443298,436.414581 
	C210.507675,446.266083 207.651337,456.654480 210.841415,468.769318 
	C210.963013,469.192383 211.084610,469.615479 211.160690,470.481903 
	C211.160690,470.481903 211.323318,470.896881 211.346802,471.579468 
	C212.174957,473.406311 213.003113,475.233154 213.926971,477.530884 
	C213.926971,477.530884 214.217590,477.913574 214.245605,478.534912 
	C214.800003,479.382172 215.354401,480.229431 216.055969,481.636902 
	C216.369812,481.798004 216.683655,481.959076 216.749451,481.931885 
	C216.749451,481.931885 216.561111,482.179871 216.716064,482.644165 
	C216.716064,482.644165 217.102676,482.944336 217.274200,483.597137 
	C220.178436,486.735016 223.082672,489.872864 226.241623,493.574280 
	C227.150894,494.394867 228.060165,495.215485 229.118103,496.532471 
	C229.405167,496.707611 229.692230,496.882782 229.995132,497.002411 
	C229.995132,497.002411 229.939789,497.018768 230.139893,497.486115 
	C230.419205,497.663574 230.698517,497.841064 231.274399,498.629578 
	C234.472397,501.494263 237.670395,504.358948 241.133072,507.841034 
	C248.746201,515.708130 256.182068,523.756653 264.009613,531.404236 
	C280.000671,547.027527 304.134247,548.239563 321.181122,533.789490 
	C329.358582,526.857849 336.459595,518.656250 344.513947,510.854279 
	C344.801666,510.648834 344.969879,510.371002 345.490387,509.836273 
	C345.664886,509.557007 345.839355,509.277740 346.502045,508.789551 
	C346.690796,508.492218 346.879547,508.194885 347.511597,507.812927 
	C347.792358,507.647949 347.952881,507.403870 348.494019,506.912048 
	C348.682678,506.627228 348.871368,506.342407 349.008575,505.998779 
	C349.008575,505.998779 349.052338,506.059814 349.534241,505.879578 
	C349.719299,505.597900 349.904358,505.316254 350.600464,504.850952 
	C351.178894,504.170685 351.757324,503.490448 352.687531,502.592438 
	C352.687531,502.592438 352.738373,502.181885 353.338959,501.994324 
	C353.581177,501.677521 353.823395,501.360687 354.624451,500.782715 
	C355.423767,499.859924 356.223053,498.937103 357.498718,497.861481 
	C357.667328,497.582825 357.835938,497.304199 358.026642,497.025726 
	C358.026642,497.025726 358.026550,497.003662 358.500854,496.841705 
	C358.674622,496.567871 358.848358,496.294037 359.003113,496.000488 
	C359.003113,496.000488 359.029205,496.014954 359.634399,495.734619 
	C366.360352,490.421295 370.857483,483.412659 374.980927,475.507294 
	C374.980927,475.507294 375.033905,475.021698 374.998779,475.001221 
	C374.998779,475.001221 375.030365,475.028687 375.476532,474.678070 
	C375.595459,474.137299 375.714386,473.596497 376.156708,472.540192 
	C376.312561,471.956909 376.468384,471.373627 376.975037,470.045105 
	C379.104584,459.772797 379.452454,449.729828 373.310852,439.754028 
	C372.891144,439.115387 372.471436,438.476746 372.086700,437.947021 
	C372.086700,437.947021 372.195618,437.912048 372.084076,437.325043 
	C371.590332,436.701447 371.096558,436.077850 370.702698,435.345978 
	C370.702698,435.345978 370.594604,435.245911 370.335815,434.651062 
	C360.611633,424.750702 350.887482,414.850342 340.939606,404.440613 
	C340.642090,404.228607 340.344604,404.016571 339.914490,403.389526 
	C339.745819,403.128296 339.507721,402.974731 338.961609,402.414978 
	C338.637512,402.241852 338.313446,402.068695 338.006714,402.008789 
	C338.006714,402.008789 338.119965,401.991516 337.948944,401.448517 
	C337.633240,401.258972 337.317505,401.069427 337.002869,400.996460 
	C337.002869,400.996460 337.119446,400.995300 336.932159,400.465302 
	C336.621155,400.275055 336.310181,400.084808 336.052155,399.952789 
	C336.052155,399.952789 336.110321,399.899719 335.843231,399.287170 
	C331.873413,395.267914 328.030670,391.113068 323.911377,387.253357 
	C307.837738,372.192657 284.467743,370.677155 267.947662,384.101654 
	C261.418152,389.407623 255.856277,395.904327 249.917648,401.949677 
	C249.917648,401.949677 250.008423,401.885773 249.451843,402.025787 
	C249.228699,402.325928 249.005539,402.626068 248.373947,403.065460 
	C248.111526,403.229584 247.960022,403.465088 247.402908,404.018555 
	C247.182236,404.323822 246.961563,404.629089 246.343201,405.068756 
	C246.094818,405.237549 245.954239,405.471222 245.407166,406.021271 
	C245.237411,406.350708 245.067642,406.680145 245.015198,407.001648 
	C245.015198,407.001648 245.007324,406.884338 244.459366,407.018982 
	C244.247009,407.319244 244.034668,407.619537 243.402451,408.052246 
	C243.122696,408.203918 242.959213,408.437134 242.408737,409.015564 
	C242.192062,409.320343 241.975403,409.625122 241.351379,410.076080 
	C241.101303,410.255676 240.958023,410.498322 240.412979,411.043488 
	C240.242050,411.365570 240.071136,411.687622 240.011307,412.005005 
	C240.011307,412.005005 240.006699,411.893890 239.454422,412.041229 
M248.467148,56.078049 
	C248.287354,56.378876 248.107559,56.679707 247.971497,56.937183 
	C247.971497,56.937183 247.908035,56.938740 247.316116,57.239929 
	C236.495529,69.005615 225.674957,80.771294 214.356628,93.084808 
	C208.808929,104.523277 207.520599,116.144630 212.914398,128.780762 
	C215.003616,132.354065 216.516586,136.472534 219.287292,139.401093 
	C228.548035,149.189453 238.258881,158.551987 248.098038,168.686279 
	C253.376434,174.002258 258.540802,179.437531 263.954559,184.611862 
	C280.171143,200.111206 304.632507,201.285782 321.182617,187.040009 
	C327.587006,181.527328 333.206390,175.102646 339.776398,168.804672 
	C348.470001,160.146866 357.558258,151.839996 365.695892,142.687836 
	C369.963562,137.888092 372.564880,131.606628 376.116913,125.708992 
	C376.116913,125.708992 376.105927,125.361763 376.569031,124.778061 
	C376.760468,123.806969 376.951935,122.835884 377.432251,121.436287 
	C377.311981,121.145935 377.191681,120.855591 377.675507,119.873833 
	C377.472717,114.387703 377.269958,108.901581 377.141418,102.693108 
	C374.811401,97.757751 372.481415,92.822388 370.084503,87.948654 
	C370.084503,87.948654 370.147797,88.013969 370.075439,87.485954 
	C369.720917,87.116089 369.366394,86.746223 368.476685,85.923607 
	C358.677032,75.928238 348.877380,65.932869 338.727356,55.361774 
	C333.860321,50.440002 329.022461,45.488976 324.120911,40.601830 
	C308.078094,24.606215 282.300201,23.881725 265.518188,39.161682 
	C260.050201,44.140285 255.094681,49.681767 249.421616,55.135834 
	C249.256058,55.425388 249.090515,55.714943 248.997498,55.993557 
	C248.997498,55.993557 248.986511,55.921047 248.467148,56.078049 
M492.014587,362.003510 
	C492.014587,362.003510 492.057526,362.031586 492.635132,361.770416 
	C493.770630,360.532166 494.906097,359.293884 496.026550,358.021149 
	C496.026550,358.021149 496.061584,358.041321 496.660065,357.749420 
	C502.040466,351.027710 508.007233,344.680481 512.615173,337.465454 
	C516.281738,331.724457 518.288330,324.923370 521.607910,318.140106 
	C521.813477,317.441437 522.019104,316.742798 522.634827,315.556976 
	C522.794617,314.728210 522.954407,313.899445 523.571899,312.476135 
	C527.870422,296.029266 528.379089,279.528748 524.246399,262.161255 
	C520.170715,246.308609 513.305237,231.938828 501.581879,219.413269 
	C497.412231,215.382294 493.166077,211.427078 489.087067,207.306381 
	C475.984253,194.069626 463.294098,180.400848 449.772888,167.608887 
	C437.887451,156.364441 419.336456,156.037857 407.411713,167.241333 
	C390.697113,182.944839 374.898315,199.623154 358.110535,216.150391 
	C354.227570,220.007477 350.172516,223.708023 346.494141,227.751251 
	C335.809998,239.495224 323.721466,249.013397 307.136597,252.977112 
	C293.340698,255.600525 280.016907,254.016983 266.640961,248.076767 
	C260.330505,243.346069 253.734482,238.945206 247.786697,233.795654 
	C241.314560,228.192093 235.444382,221.893265 228.994659,215.287613 
	C225.380722,211.639511 221.777435,207.980789 218.150864,204.345276 
	C206.287155,192.452347 194.599258,180.376312 182.494904,168.733337 
	C170.056320,156.768845 151.146576,155.626343 138.991272,167.026398 
	C122.149017,182.822174 106.226654,199.598785 89.309578,216.240158 
	C80.636009,225.285080 73.322525,235.223053 68.532326,247.640060 
	C67.203094,251.395386 65.629944,255.084518 64.589645,258.918243 
	C61.260742,271.185974 59.780849,283.627319 61.714115,297.156494 
	C63.473236,316.380524 70.666489,333.349579 83.157013,348.834106 
	C96.418472,362.237030 109.679932,375.639984 123.231468,389.645233 
	C126.908882,393.397125 130.712753,397.034332 134.239685,400.922699 
	C144.250320,411.959167 155.739243,418.244019 171.341858,414.599304 
	C183.908127,411.663910 196.285233,396.437469 195.010849,384.020569 
	C195.419312,376.146942 193.508713,369.007690 188.160583,362.371429 
	C187.772675,361.997589 187.384781,361.623779 186.712463,360.620636 
	C181.764908,355.747131 176.817337,350.873657 171.622559,345.407501 
	C169.932983,343.779785 168.243408,342.152069 166.583160,340.468536 
	C166.583160,340.468536 166.523026,340.450195 166.158569,339.898560 
	C157.238983,330.968781 148.448471,321.904877 139.356964,313.153717 
	C132.673813,306.720734 127.964058,299.381134 126.703407,289.162018 
	C127.527344,283.659760 127.421288,277.798615 129.376205,272.732819 
	C133.017868,263.296082 140.854752,256.823273 148.723755,249.787598 
	C155.650131,245.108948 162.758789,245.607117 170.290894,249.561523 
	C171.108322,250.179688 171.925766,250.797836 172.699921,251.439743 
	C172.699921,251.439743 172.722198,251.483444 173.062012,252.032455 
	C180.820480,259.688324 188.578964,267.344177 196.621109,275.570862 
	C199.519913,278.494904 202.293762,281.556458 205.336609,284.322021 
	C241.021713,316.754852 282.340118,327.136597 328.942963,314.931488 
	C350.601562,309.259155 369.459930,298.213989 385.468414,281.421814 
	C394.412079,272.382629 403.355713,263.343445 412.166412,254.135590 
	C412.166412,254.135590 411.997803,254.268585 412.574371,254.196136 
	C412.955536,253.779327 413.336670,253.362518 414.304779,252.651672 
	C415.218384,251.720947 416.131958,250.790222 417.494293,249.739487 
	C417.774933,249.575058 417.968933,249.339279 418.797668,248.866501 
	C428.638184,244.476624 435.106506,245.608902 442.786285,253.145493 
	C446.818573,257.102600 450.782593,261.129272 455.005249,265.788696 
	C464.995209,279.486786 463.102814,299.792603 450.656799,311.019867 
	C449.689148,311.892761 448.937866,313.005493 447.537079,314.263184 
	C447.020782,314.870575 446.504486,315.477997 445.577881,316.240143 
	C445.329224,316.425354 445.184937,316.671692 444.533142,317.280334 
	C432.067017,329.859406 419.600861,342.438477 406.515594,355.300598 
	C399.669586,361.457703 394.218292,368.428680 393.028015,378.903259 
	C391.521210,391.949127 396.232269,402.312531 406.792633,409.928741 
	C419.694366,419.233459 436.968750,417.378754 449.095123,405.447205 
	C454.864349,399.770660 460.412567,393.869507 466.540466,387.903992 
	C466.714233,387.624420 466.887970,387.344849 467.637177,386.784698 
	C468.784668,385.545258 469.932159,384.305817 471.686981,382.791321 
	C478.137360,376.142853 484.587738,369.494385 491.523376,362.814423 
	C491.834686,362.645691 492.009674,362.385345 492.014587,362.003510 
z"/>
<path fill="#01B3C2" opacity="1.000000" stroke="none" 
	d="
M307.994965,253.040649 
	C323.721466,249.013397 335.809998,239.495224 346.494141,227.751251 
	C350.172516,223.708023 354.227570,220.007477 358.840454,216.006561 
	C376.453522,212.987076 393.414062,211.548203 410.582489,211.911270 
	C429.029724,212.301422 447.522125,211.369537 465.934265,212.262817 
	C475.270996,212.715790 484.474518,215.916061 493.737061,217.879959 
	C493.895142,217.913498 494.030945,218.046570 494.188934,218.086609 
	C496.739258,218.732910 499.291504,219.371658 501.843292,220.012131 
	C513.305237,231.938828 520.170715,246.308609 523.897827,262.633820 
	C521.628113,264.725189 519.707031,266.344025 516.946777,268.669952 
	C514.321594,259.698425 507.106628,261.042572 500.466064,261.007874 
	C493.826202,260.973145 487.174408,261.248505 480.548798,260.939178 
	C471.621826,260.522369 463.004059,261.482483 454.777435,265.124542 
	C450.782593,261.129272 446.818573,257.102600 442.786285,253.145493 
	C435.106506,245.608902 428.638184,244.476624 418.260559,249.081894 
	C417.491241,249.477158 417.265259,249.664551 417.045532,249.859497 
	C416.131958,250.790222 415.218384,251.720947 413.785706,252.947968 
	C412.843719,253.585709 412.420746,253.927139 411.997803,254.268585 
	C411.997803,254.268585 412.166412,254.135590 411.859619,254.104828 
	C407.901184,252.721130 404.269562,250.264709 400.594543,250.197891 
	C379.829773,249.820450 359.053711,249.919312 338.283813,250.110229 
	C334.741302,250.142792 331.222046,251.475342 327.670288,252.079376 
	C324.196777,252.670074 320.642975,252.870483 317.221558,253.661926 
	C314.005554,254.405853 310.887817,256.170959 307.994965,253.040649 
z"/>
<path fill="#01ADC6" opacity="1.000000" stroke="none" 
	d="
M307.565796,253.008881 
	C310.887817,256.170959 314.005554,254.405853 317.221558,253.661926 
	C320.642975,252.870483 324.196777,252.670074 327.670288,252.079376 
	C331.222046,251.475342 334.741302,250.142792 338.283813,250.110229 
	C359.053711,249.919312 379.829773,249.820450 400.594543,250.197891 
	C404.269562,250.264709 407.901184,252.721130 411.926086,254.189163 
	C403.355713,263.343445 394.412079,272.382629 384.976074,281.318115 
	C381.549469,277.199005 377.287689,276.980255 372.845612,276.982971 
	C322.309357,277.013885 271.773071,276.986115 221.236908,277.046936 
	C218.448929,277.050323 215.573792,277.377441 212.894669,278.117004 
	C208.798706,279.247711 205.115799,279.102295 201.447067,276.748627 
	C199.975571,275.804596 198.054108,275.561951 196.337448,275.000031 
	C188.578964,267.344177 180.820480,259.688324 173.242096,251.631439 
	C175.220001,250.190842 177.017822,249.151245 178.287964,248.416794 
	C179.852478,249.894424 181.062164,251.036911 182.271820,252.179413 
	C183.113464,250.808151 183.671829,249.068115 184.863571,248.152649 
	C186.622314,246.801682 188.820129,245.185196 190.851105,245.157455 
	C207.975632,244.923599 225.120377,244.617538 242.223068,245.272568 
	C247.450348,245.472778 253.280365,247.588547 257.548492,250.630951 
	C262.678619,254.287796 265.013336,254.534744 267.135803,248.488403 
	C280.016907,254.016983 293.340698,255.600525 307.565796,253.008881 
z"/>
<path fill="#01B4C1" opacity="1.000000" stroke="none" 
	d="
M266.888367,248.282593 
	C265.013336,254.534744 262.678619,254.287796 257.548492,250.630951 
	C253.280365,247.588547 247.450348,245.472778 242.223068,245.272568 
	C225.120377,244.617538 207.975632,244.923599 190.851105,245.157455 
	C188.820129,245.185196 186.622314,246.801682 184.863571,248.152649 
	C183.671829,249.068115 183.113464,250.808151 182.271820,252.179413 
	C181.062164,251.036911 179.852478,249.894424 178.287964,248.416794 
	C177.017822,249.151245 175.220001,250.190842 173.072174,251.356934 
	C172.722198,251.483444 172.699921,251.439743 172.586487,251.132401 
	C171.638947,250.229889 170.804840,249.634705 169.970749,249.039520 
	C162.758789,245.607117 155.650131,245.108948 148.063354,249.801300 
	C144.116150,248.271606 141.129440,248.358643 138.130249,250.791382 
	C136.768188,251.896225 134.761047,252.205765 133.046539,252.876068 
	C133.046539,251.209854 133.046539,249.543625 133.046539,248.721680 
	C127.341629,249.127823 121.221619,249.797195 115.089043,249.944748 
	C106.124550,250.160446 97.150787,249.965103 88.181580,250.029358 
	C86.038383,250.044708 83.696800,249.903366 81.793976,250.682648 
	C76.463112,252.865829 72.441719,251.330002 69.020760,247.138626 
	C73.322525,235.223053 80.636009,225.285080 90.021820,216.098801 
	C93.470901,214.703064 96.207733,213.448700 98.659859,212.324814 
	C100.281227,212.904358 103.948929,214.601318 104.168541,214.234421 
	C106.488838,210.357880 110.100670,211.016861 113.513336,211.014008 
	C142.586639,210.989624 171.660583,210.913208 200.732605,211.109497 
	C204.383362,211.134140 207.995071,212.834244 211.678802,213.417358 
	C214.501297,213.864151 217.411041,213.741211 220.277649,213.935669 
	C221.749008,214.035492 223.235764,214.163330 224.670349,214.482010 
	C226.244614,214.831741 227.766846,215.415695 229.311752,215.897583 
	C235.444382,221.893265 241.314560,228.192093 247.786697,233.795654 
	C253.734482,238.945206 260.330505,243.346069 266.888367,248.282593 
z"/>
<path fill="#01A7CD" opacity="1.000000" stroke="none" 
	d="
M196.479279,275.285461 
	C198.054108,275.561951 199.975571,275.804596 201.447067,276.748627 
	C205.115799,279.102295 208.798706,279.247711 212.894669,278.117004 
	C215.573792,277.377441 218.448929,277.050323 221.236908,277.046936 
	C271.773071,276.986115 322.309357,277.013885 372.845612,276.982971 
	C377.287689,276.980255 381.549469,277.199005 384.687256,281.468323 
	C369.459930,298.213989 350.601562,309.259155 328.942963,314.931488 
	C282.340118,327.136597 241.021713,316.754852 205.336609,284.322021 
	C202.293762,281.556458 199.519913,278.494904 196.479279,275.285461 
z"/>
<path fill="#01C6AF" opacity="1.000000" stroke="none" 
	d="
M247.797302,168.077637 
	C238.258881,158.551987 228.548035,149.189453 219.287292,139.401093 
	C216.516586,136.472534 215.003616,132.354065 213.244370,128.335419 
	C215.527863,128.034683 217.487808,128.343719 219.432693,128.267609 
	C220.791229,128.214432 222.178268,127.760986 223.465942,127.262543 
	C226.063202,126.257187 228.549057,124.334312 231.174301,124.154526 
	C237.807861,123.700256 244.497131,123.850647 251.157120,124.024948 
	C292.737823,125.113152 334.391205,121.607819 375.918701,125.994308 
	C372.564880,131.606628 369.963562,137.888092 365.695892,142.687836 
	C357.558258,151.839996 348.470001,160.146866 339.245636,168.677795 
	C336.729553,164.873581 333.557220,163.926270 329.543671,163.950058 
	C309.101746,164.071259 288.650208,163.673569 268.220795,164.194168 
	C261.384430,164.368378 254.603546,166.720871 247.797302,168.077637 
z"/>
<path fill="#00CDA9" opacity="1.000000" stroke="none" 
	d="
M376.017822,125.851654 
	C334.391205,121.607819 292.737823,125.113152 251.157120,124.024948 
	C244.497131,123.850647 237.807861,123.700256 231.174301,124.154526 
	C228.549057,124.334312 226.063202,126.257187 223.465942,127.262543 
	C222.178268,127.760986 220.791229,128.214432 219.432693,128.267609 
	C217.487808,128.343719 215.527863,128.034683 213.214844,127.970222 
	C207.520599,116.144630 208.808929,104.523277 214.694794,93.116562 
	C216.043533,93.665741 217.119965,94.725739 218.054001,94.612404 
	C224.043228,93.885651 229.995026,92.174988 235.970535,92.123871 
	C266.754364,91.860542 297.541687,91.994255 328.327789,92.004013 
	C342.576782,92.008530 356.878998,91.417107 371.152832,95.799469 
	C370.798523,93.000076 370.474976,90.443558 370.151398,87.887032 
	C372.481415,92.822388 374.811401,97.757751 377.096130,103.562469 
	C377.057678,109.809631 377.064514,115.187439 377.071381,120.565247 
	C377.191681,120.855591 377.311981,121.145935 377.124786,121.983177 
	C376.580200,123.473969 376.343079,124.417870 376.105927,125.361763 
	C376.105927,125.361763 376.116913,125.708992 376.017822,125.851654 
z"/>
<path fill="#0186ED" opacity="1.000000" stroke="none" 
	d="
M210.916840,468.110291 
	C207.651337,456.654480 210.507675,446.266083 217.054901,436.336609 
	C222.871750,435.506256 228.073990,434.126953 233.282776,434.101715 
	C271.500488,433.916260 309.719543,433.992004 347.938141,434.028320 
	C350.079773,434.030365 352.216888,434.496704 354.363190,434.599945 
	C359.771515,434.860077 365.183868,435.036133 370.594604,435.245911 
	C370.594604,435.245911 370.702698,435.345978 370.722443,435.701843 
	C371.226654,436.675842 371.711151,437.293945 372.195618,437.912048 
	C372.195618,437.912048 372.086700,437.947021 372.216095,438.228943 
	C372.622437,439.187134 372.899414,439.863434 373.176361,440.539703 
	C379.452454,449.729828 379.104584,459.772797 376.656372,470.146057 
	C372.977478,463.692139 366.048645,463.330017 360.556610,463.274231 
	C315.465851,462.816345 270.368469,463.003723 225.273117,463.050598 
	C223.665924,463.052246 220.949493,463.198242 220.634140,464.009430 
	C218.710373,468.958038 214.686981,468.072144 210.916840,468.110291 
z"/>
<path fill="#01BCB9" opacity="1.000000" stroke="none" 
	d="
M501.712585,219.712708 
	C499.291504,219.371658 496.739258,218.732910 494.188934,218.086609 
	C494.030945,218.046570 493.895142,217.913498 493.737061,217.879959 
	C484.474518,215.916061 475.270996,212.715790 465.934265,212.262817 
	C447.522125,211.369537 429.029724,212.301422 410.582489,211.911270 
	C393.414062,211.548203 376.453522,212.987076 359.139099,215.873596 
	C374.898315,199.623154 390.697113,182.944839 407.411713,167.241333 
	C419.336456,156.037857 437.887451,156.364441 449.772888,167.608887 
	C463.294098,180.400848 475.984253,194.069626 489.087067,207.306381 
	C493.166077,211.427078 497.412231,215.382294 501.712585,219.712708 
z"/>
<path fill="#01BCB9" opacity="1.000000" stroke="none" 
	d="
M229.153198,215.592590 
	C227.766846,215.415695 226.244614,214.831741 224.670349,214.482010 
	C223.235764,214.163330 221.749008,214.035492 220.277649,213.935669 
	C217.411041,213.741211 214.501297,213.864151 211.678802,213.417358 
	C207.995071,212.834244 204.383362,211.134140 200.732605,211.109497 
	C171.660583,210.913208 142.586639,210.989624 113.513336,211.014008 
	C110.100670,211.016861 106.488838,210.357880 104.168541,214.234421 
	C103.948929,214.601318 100.281227,212.904358 98.659859,212.324814 
	C96.207733,213.448700 93.470901,214.703064 90.322235,215.956436 
	C106.226654,199.598785 122.149017,182.822174 138.991272,167.026398 
	C151.146576,155.626343 170.056320,156.768845 182.494904,168.733337 
	C194.599258,180.376312 206.287155,192.452347 218.150864,204.345276 
	C221.777435,207.980789 225.380722,211.639511 229.153198,215.592590 
z"/>
<path fill="#01D4A2" opacity="1.000000" stroke="none" 
	d="
M370.117950,87.917847 
	C370.474976,90.443558 370.798523,93.000076 371.152832,95.799469 
	C356.878998,91.417107 342.576782,92.008530 328.327789,92.004013 
	C297.541687,91.994255 266.754364,91.860542 235.970535,92.123871 
	C229.995026,92.174988 224.043228,93.885651 218.054001,94.612404 
	C217.119965,94.725739 216.043533,93.665741 214.943665,92.842644 
	C225.674957,80.771294 236.495529,69.005615 247.700851,57.455055 
	C249.030502,61.723171 252.202728,61.939224 255.490997,61.987923 
	C277.930756,62.320221 300.371765,62.591248 322.809296,63.038334 
	C329.433868,63.170334 334.802582,60.934669 339.077728,55.937500 
	C348.877380,65.932869 358.677032,75.928238 368.865448,86.367172 
	C369.552063,87.211815 369.849945,87.612892 370.147797,88.013969 
	C370.147797,88.013969 370.084503,87.948654 370.117950,87.917847 
z"/>
<path fill="#018EE6" opacity="1.000000" stroke="none" 
	d="
M370.465210,434.948486 
	C365.183868,435.036133 359.771515,434.860077 354.363190,434.599945 
	C352.216888,434.496704 350.079773,434.030365 347.938141,434.028320 
	C309.719543,433.992004 271.500488,433.916260 233.282776,434.101715 
	C228.073990,434.126953 222.871750,435.506256 217.343552,436.151154 
	C217.629227,435.063080 218.237839,434.082520 219.316681,432.878418 
	C220.152206,432.094757 220.517502,431.534576 220.882782,430.974396 
	C225.974045,425.725037 231.065308,420.475647 236.655289,414.892487 
	C237.411392,414.288513 237.668777,414.018341 237.926147,413.748169 
	C237.963104,413.444519 238.113586,413.215515 238.792664,412.835754 
	C239.474075,412.371613 239.740387,412.132751 240.006699,411.893890 
	C240.006699,411.893890 240.011307,412.005005 240.134705,411.813873 
	C240.479248,411.349823 240.700409,411.076935 240.921570,410.804016 
	C240.958023,410.498322 241.101303,410.255676 241.759750,409.819397 
	C242.416077,409.292419 242.664032,409.022156 242.912003,408.751862 
	C242.959213,408.437134 243.122696,408.203918 243.816559,407.822388 
	C244.489532,407.356476 244.748428,407.120422 245.007324,406.884338 
	C245.007324,406.884338 245.015198,407.001648 245.135452,406.806458 
	C245.477615,406.330780 245.699539,406.050262 245.921463,405.769745 
	C245.954239,405.471222 246.094818,405.237549 246.750458,404.820251 
	C247.411621,404.305115 247.665543,404.038544 247.919449,403.771942 
	C247.960022,403.465088 248.111526,403.229584 248.790298,402.832581 
	C249.473907,402.361694 249.741165,402.123718 250.008423,401.885773 
	C250.008423,401.885773 249.917648,401.949677 250.325195,401.927399 
	C256.633728,401.329956 262.527832,400.359833 268.436981,400.257629 
	C283.021301,400.005463 297.629120,399.753510 312.191498,400.362640 
	C316.997711,400.563690 321.529480,402.682251 324.594635,395.579773 
	C326.859070,403.024719 330.540680,403.261780 335.153503,400.153625 
	C335.412079,399.979401 335.788666,399.980316 336.110321,399.899719 
	C336.110321,399.899719 336.052155,399.952789 336.201935,400.117828 
	C336.607635,400.520355 336.863525,400.757812 337.119446,400.995300 
	C337.119446,400.995300 337.002869,400.996460 337.179352,401.133270 
	C337.610535,401.510559 337.865234,401.751038 338.119965,401.991516 
	C338.119965,401.991516 338.006714,402.008789 338.191528,402.134094 
	C338.650940,402.482574 338.925568,402.705688 339.200165,402.928833 
	C339.507721,402.974731 339.745819,403.128296 340.153381,403.800659 
	C340.649292,404.457855 340.906311,404.703918 341.163330,404.949982 
	C350.887482,414.850342 360.611633,424.750702 370.465210,434.948486 
z"/>
<path fill="#02A1D1" opacity="1.000000" stroke="none" 
	d="
M82.905487,348.224854 
	C70.666489,333.349579 63.473236,316.380524 62.087719,296.513336 
	C66.779457,294.915680 71.074577,293.285797 75.420181,293.137787 
	C86.852280,292.748291 98.307068,292.931549 109.751152,293.048920 
	C112.867920,293.080841 116.080681,293.311798 119.067520,294.121918 
	C123.129471,295.223663 125.499634,294.073822 126.606415,290.093445 
	C127.964058,299.381134 132.673813,306.720734 139.356964,313.153717 
	C148.448471,321.904877 157.238983,330.968781 166.038574,340.381836 
	C163.103622,344.954285 159.618271,341.711578 156.433441,341.727753 
	C136.791870,341.827423 117.150192,341.906616 97.508713,342.020325 
	C91.794800,342.053406 86.668388,343.556976 82.905487,348.224854 
z"/>
<path fill="#0181F2" opacity="1.000000" stroke="none" 
	d="
M210.879120,468.439819 
	C214.686981,468.072144 218.710373,468.958038 220.634140,464.009430 
	C220.949493,463.198242 223.665924,463.052246 225.273117,463.050598 
	C270.368469,463.003723 315.465851,462.816345 360.556610,463.274231 
	C366.048645,463.330017 372.977478,463.692139 376.480957,470.518677 
	C376.468384,471.373627 376.312561,471.956909 375.874237,473.035767 
	C375.404633,474.030457 375.217499,474.529572 375.030334,475.028687 
	C375.030365,475.028687 374.998779,475.001221 374.951111,475.113464 
	C374.789398,475.440948 374.725128,475.670441 374.710693,475.914215 
	C370.857483,483.412659 366.360352,490.421295 359.293365,495.499512 
	C356.755432,486.933502 354.435333,485.019196 346.150726,485.012817 
	C313.986816,484.988037 281.822662,484.943390 249.659149,485.054443 
	C244.022629,485.073914 237.829880,483.358154 233.331528,488.831116 
	C232.966125,489.275726 231.600449,488.776978 231.000229,489.172668 
	C229.247452,490.328156 227.647018,491.714722 225.986908,493.010742 
	C223.082672,489.872864 220.178436,486.735016 217.154495,483.159058 
	C216.921341,482.503479 216.763443,482.323090 216.561111,482.179871 
	C216.561111,482.179871 216.749451,481.931885 216.686462,481.861450 
	C216.385239,481.552917 216.147018,481.314819 215.908798,481.076691 
	C215.354401,480.229431 214.800003,479.382172 214.211090,478.108002 
	C214.107666,477.448944 213.992554,477.241913 213.831253,477.059998 
	C213.003113,475.233154 212.174957,473.406311 211.344467,471.129700 
	C211.339691,470.457367 211.294388,470.243561 211.206207,470.038544 
	C211.084610,469.615479 210.963013,469.192383 210.879120,468.439819 
z"/>
<path fill="#0199DB" opacity="1.000000" stroke="none" 
	d="
M83.031250,348.529480 
	C86.668388,343.556976 91.794800,342.053406 97.508713,342.020325 
	C117.150192,341.906616 136.791870,341.827423 156.433441,341.727753 
	C159.618271,341.711578 163.103622,344.954285 166.220795,340.657654 
	C166.523026,340.450195 166.583160,340.468536 166.512848,340.896423 
	C166.086533,345.395905 168.769348,345.940399 171.869766,346.000183 
	C176.817337,350.873657 181.764908,355.747131 186.995056,361.159790 
	C187.626617,362.100983 187.975601,362.502960 188.324570,362.904968 
	C193.508713,369.007690 195.419312,376.146942 194.768890,384.155060 
	C190.741379,378.749207 184.544006,377.522186 178.826553,377.224091 
	C166.200867,376.565826 153.515686,376.925293 140.858109,377.104797 
	C138.283569,377.141296 135.677917,378.065491 133.168854,378.845062 
	C130.167969,379.777435 127.255409,380.994110 124.090263,382.167053 
	C125.244934,383.854584 126.757370,386.065002 128.794983,389.042938 
	C126.141869,389.042938 124.541626,389.042938 122.941383,389.042938 
	C109.679932,375.639984 96.418472,362.237030 83.031250,348.529480 
z"/>
<path fill="#01A7CB" opacity="1.000000" stroke="none" 
	d="
M454.891357,265.456604 
	C463.004059,261.482483 471.621826,260.522369 480.548798,260.939178 
	C487.174408,261.248505 493.826202,260.973145 500.466064,261.007874 
	C507.106628,261.042572 514.321594,259.698425 516.946777,268.669952 
	C519.707031,266.344025 521.628113,264.725189 523.911072,263.034637 
	C528.379089,279.528748 527.870422,296.029266 523.020020,312.609680 
	C517.748352,309.505524 512.505859,308.818024 506.874268,308.928955 
	C494.950958,309.163940 483.019073,309.078186 471.092224,308.965790 
	C466.277924,308.920410 461.829651,309.436920 459.713989,312.642090 
	C455.054504,313.188904 451.570251,313.597809 448.085999,314.006744 
	C448.937866,313.005493 449.689148,311.892761 450.656799,311.019867 
	C463.102814,299.792603 464.995209,279.486786 454.891357,265.456604 
z"/>
<path fill="#029FD5" opacity="1.000000" stroke="none" 
	d="
M447.811523,314.134949 
	C451.570251,313.597809 455.054504,313.188904 459.713989,312.642090 
	C461.829651,309.436920 466.277924,308.920410 471.092224,308.965790 
	C483.019073,309.078186 494.950958,309.163940 506.874268,308.928955 
	C512.505859,308.818024 517.748352,309.505524 522.791138,312.906952 
	C522.954407,313.899445 522.794617,314.728210 522.254578,316.107605 
	C521.593506,317.303131 521.312744,317.948029 521.031921,318.592926 
	C518.288330,324.923370 516.281738,331.724457 512.615173,337.465454 
	C508.007233,344.680481 502.040466,351.027710 496.379333,357.480042 
	C496.337128,355.065216 496.889282,352.890381 496.691772,350.785889 
	C496.580383,349.599365 495.234039,348.528717 494.444000,347.405853 
	C493.501678,348.108063 492.518219,348.762848 491.632507,349.530365 
	C491.100494,349.991364 490.720978,350.628357 489.876129,351.680359 
	C487.251434,345.960785 482.552734,345.952362 477.781769,345.988647 
	C470.798676,346.041779 463.801514,345.728516 456.834900,346.071045 
	C448.687897,346.471619 440.137024,343.951447 432.532104,349.041443 
	C432.072083,349.349365 431.218872,348.997101 430.588715,349.135071 
	C425.397339,350.271393 420.199829,351.386993 415.037109,352.643982 
	C412.368530,353.293701 409.766693,354.217560 407.134705,355.017548 
	C419.600861,342.438477 432.067017,329.859406 444.986206,316.988098 
	C445.631927,316.501129 445.814880,316.297607 445.988159,316.085388 
	C446.504486,315.477997 447.020782,314.870575 447.811523,314.134949 
M516.094727,314.215851 
	C515.999573,314.392365 515.904419,314.568878 515.809265,314.745361 
	C515.951965,314.611328 516.094666,314.477264 516.094727,314.215851 
z"/>
<path fill="#01ACC8" opacity="1.000000" stroke="none" 
	d="
M126.654907,289.627747 
	C125.499634,294.073822 123.129471,295.223663 119.067520,294.121918 
	C116.080681,293.311798 112.867920,293.080841 109.751152,293.048920 
	C98.307068,292.931549 86.852280,292.748291 75.420181,293.137787 
	C71.074577,293.285797 66.779457,294.915680 62.144020,296.089935 
	C59.780849,283.627319 61.260742,271.185974 64.589645,258.918243 
	C65.629944,255.084518 67.203094,251.395386 68.776543,247.389343 
	C72.441719,251.330002 76.463112,252.865829 81.793976,250.682648 
	C83.696800,249.903366 86.038383,250.044708 88.181580,250.029358 
	C97.150787,249.965103 106.124550,250.160446 115.089043,249.944748 
	C121.221619,249.797195 127.341629,249.127823 133.046539,248.721680 
	C133.046539,249.543625 133.046539,251.209854 133.046539,252.876068 
	C134.761047,252.205765 136.768188,251.896225 138.130249,250.791382 
	C141.129440,248.358643 144.116150,248.271606 147.728470,249.928619 
	C140.854752,256.823273 133.017868,263.296082 129.376205,272.732819 
	C127.421288,277.798615 127.527344,283.659760 126.654907,289.627747 
z"/>
<path fill="#0179F8" opacity="1.000000" stroke="none" 
	d="
M347.993195,507.080719 
	C347.952881,507.403870 347.792358,507.647949 347.107269,508.038086 
	C346.473236,508.508301 346.243530,508.753387 346.013824,508.998474 
	C345.839355,509.277740 345.664886,509.557007 345.082886,510.087097 
	C344.452606,510.556091 344.243500,510.786713 344.048065,511.029755 
	C336.459595,518.656250 329.358582,526.857849 321.181122,533.789490 
	C304.134247,548.239563 280.000671,547.027527 264.009613,531.404236 
	C256.182068,523.756653 248.746201,515.708130 241.317505,507.393616 
	C245.366974,506.648285 249.735565,507.260925 250.216721,503.000000 
	C257.378235,503.000000 263.971405,503.000000 270.564575,503.000000 
	C289.861969,503.000000 309.164398,502.749451 328.453918,503.139374 
	C334.980255,503.271301 341.473846,505.023621 347.984802,506.296753 
	C347.989197,506.732300 347.991211,506.906494 347.993195,507.080719 
z"/>
<path fill="#0198DC" opacity="1.000000" stroke="none" 
	d="
M406.825134,355.159058 
	C409.766693,354.217560 412.368530,353.293701 415.037109,352.643982 
	C420.199829,351.386993 425.397339,350.271393 430.588715,349.135071 
	C431.218872,348.997101 432.072083,349.349365 432.532104,349.041443 
	C440.137024,343.951447 448.687897,346.471619 456.834900,346.071045 
	C463.801514,345.728516 470.798676,346.041779 477.781769,345.988647 
	C482.552734,345.952362 487.251434,345.960785 489.876129,351.680359 
	C490.720978,350.628357 491.100494,349.991364 491.632507,349.530365 
	C492.518219,348.762848 493.501678,348.108063 494.444000,347.405853 
	C495.234039,348.528717 496.580383,349.599365 496.691772,350.785889 
	C496.889282,352.890381 496.337128,355.065216 496.080109,357.625977 
	C496.061584,358.041321 496.026550,358.021149 495.691345,358.099823 
	C494.256592,359.462860 493.157074,360.747223 492.057526,362.031586 
	C492.057526,362.031586 492.014587,362.003510 491.856598,362.145630 
	C491.469482,362.463165 491.249298,362.649261 491.038086,362.845947 
	C484.587738,369.494385 478.137360,376.142853 471.265747,382.652924 
	C470.585297,381.127930 470.326019,379.741333 469.929779,377.622131 
	C466.772186,381.584076 463.747498,381.387543 459.926147,379.579437 
	C457.202606,378.290802 453.786102,378.116974 450.669647,378.071228 
	C439.346008,377.904968 428.018524,377.999176 416.692474,378.001038 
	C408.880737,378.002319 401.068970,378.013367 393.257233,378.020050 
	C394.218292,368.428680 399.669586,361.457703 406.825134,355.159058 
z"/>
<path fill="#017FF5" opacity="1.000000" stroke="none" 
	d="
M347.982422,506.035431 
	C341.473846,505.023621 334.980255,503.271301 328.453918,503.139374 
	C309.164398,502.749451 289.861969,503.000000 270.564575,503.000000 
	C263.971405,503.000000 257.378235,503.000000 250.216721,503.000000 
	C249.735565,507.260925 245.366974,506.648285 241.185165,507.084900 
	C237.670395,504.358948 234.472397,501.494263 230.961884,498.149292 
	C230.423309,497.440857 230.186783,497.224091 229.939789,497.018768 
	C229.939789,497.018768 229.995132,497.002411 229.826660,496.851776 
	C229.439301,496.468353 229.209717,496.246674 228.969437,496.036072 
	C228.060165,495.215485 227.150894,494.394867 226.114258,493.292480 
	C227.647018,491.714722 229.247452,490.328156 231.000229,489.172668 
	C231.600449,488.776978 232.966125,489.275726 233.331528,488.831116 
	C237.829880,483.358154 244.022629,485.073914 249.659149,485.054443 
	C281.822662,484.943390 313.986816,484.988037 346.150726,485.012817 
	C354.435333,485.019196 356.755432,486.933502 358.990784,495.639709 
	C359.029205,496.014954 359.003113,496.000488 358.837799,496.165100 
	C358.444794,496.542572 358.229492,496.767212 358.026550,497.003662 
	C358.026550,497.003662 358.026642,497.025726 357.843140,497.181244 
	C357.434967,497.551086 357.222565,497.776947 357.022400,498.014282 
	C356.223053,498.937103 355.423767,499.859924 354.128967,501.100952 
	C353.335114,501.673431 353.036743,501.927643 352.738373,502.181885 
	C352.738373,502.181885 352.687531,502.592438 352.335388,502.412781 
	C351.081268,501.849854 350.179260,501.466644 349.277222,501.083435 
	C349.193024,502.385406 349.108826,503.687378 349.026001,505.257111 
	C349.035706,505.703156 349.044006,505.881470 349.052338,506.059814 
	C349.052338,506.059814 349.008575,505.998779 348.765076,506.017822 
	C348.341827,506.036377 348.162140,506.035889 347.982422,506.035431 
z"/>
<path fill="#01D99C" opacity="1.000000" stroke="none" 
	d="
M338.902527,55.649635 
	C334.802582,60.934669 329.433868,63.170334 322.809296,63.038334 
	C300.371765,62.591248 277.930756,62.320221 255.490997,61.987923 
	C252.202728,61.939224 249.030502,61.723171 247.996811,57.304459 
	C247.908035,56.938740 247.971497,56.937183 248.133667,56.789703 
	C248.536087,56.411446 248.766312,56.171051 248.986511,55.921047 
	C248.986511,55.921047 248.997498,55.993557 249.129150,55.828987 
	C249.482132,55.437710 249.696777,55.204830 249.904755,54.965790 
	C255.094681,49.681767 260.050201,44.140285 265.518188,39.161682 
	C282.300201,23.881725 308.078094,24.606215 324.120911,40.601830 
	C329.022461,45.488976 333.860321,50.440002 338.902527,55.649635 
z"/>
<path fill="#0291E1" opacity="1.000000" stroke="none" 
	d="
M393.142639,378.461670 
	C401.068970,378.013367 408.880737,378.002319 416.692474,378.001038 
	C428.018524,377.999176 439.346008,377.904968 450.669647,378.071228 
	C453.786102,378.116974 457.202606,378.290802 459.926147,379.579437 
	C463.747498,381.387543 466.772186,381.584076 469.929779,377.622131 
	C470.326019,379.741333 470.585297,381.127930 470.962097,382.790466 
	C469.932159,384.305817 468.784668,385.545258 467.176605,387.085449 
	C466.488953,387.605835 466.270569,387.833801 466.060883,388.070068 
	C460.412567,393.869507 454.864349,399.770660 449.095123,405.447205 
	C436.968750,417.378754 419.694366,419.233459 406.792633,409.928741 
	C396.232269,402.312531 391.521210,391.949127 393.142639,378.461670 
z"/>
<path fill="#02BEB6" opacity="1.000000" stroke="none" 
	d="
M247.947662,168.381958 
	C254.603546,166.720871 261.384430,164.368378 268.220795,164.194168 
	C288.650208,163.673569 309.101746,164.071259 329.543671,163.950058 
	C333.557220,163.926270 336.729553,164.873581 338.949158,168.822174 
	C333.206390,175.102646 327.587006,181.527328 321.182617,187.040009 
	C304.632507,201.285782 280.171143,200.111206 263.954559,184.611862 
	C258.540802,179.437531 253.376434,174.002258 247.947662,168.381958 
z"/>
<path fill="#0291E1" opacity="1.000000" stroke="none" 
	d="
M123.086426,389.344086 
	C124.541626,389.042938 126.141869,389.042938 128.794983,389.042938 
	C126.757370,386.065002 125.244934,383.854584 124.090263,382.167053 
	C127.255409,380.994110 130.167969,379.777435 133.168854,378.845062 
	C135.677917,378.065491 138.283569,377.141296 140.858109,377.104797 
	C153.515686,376.925293 166.200867,376.565826 178.826553,377.224091 
	C184.544006,377.522186 190.741379,378.749207 194.671463,384.586761 
	C196.285233,396.437469 183.908127,411.663910 171.341858,414.599304 
	C155.739243,418.244019 144.250320,411.959167 134.239685,400.922699 
	C130.712753,397.034332 126.908882,393.397125 123.086426,389.344086 
z"/>
<path fill="#0292DD" opacity="1.000000" stroke="none" 
	d="
M335.976776,399.593445 
	C335.788666,399.980316 335.412079,399.979401 335.153503,400.153625 
	C330.540680,403.261780 326.859070,403.024719 324.594635,395.579773 
	C321.529480,402.682251 316.997711,400.563690 312.191498,400.362640 
	C297.629120,399.753510 283.021301,400.005463 268.436981,400.257629 
	C262.527832,400.359833 256.633728,401.329956 250.293289,401.881989 
	C255.856277,395.904327 261.418152,389.407623 267.947662,384.101654 
	C284.467743,370.677155 307.837738,372.192657 323.911377,387.253357 
	C328.030670,391.113068 331.873413,395.267914 335.976776,399.593445 
z"/>
<path fill="#02A1D1" opacity="1.000000" stroke="none" 
	d="
M171.746155,345.703857 
	C168.769348,345.940399 166.086533,345.395905 166.498169,340.924316 
	C168.243408,342.152069 169.932983,343.779785 171.746155,345.703857 
z"/>
<path fill="#0179F8" opacity="1.000000" stroke="none" 
	d="
M349.024658,504.989349 
	C349.108826,503.687378 349.193024,502.385406 349.277222,501.083435 
	C350.179260,501.466644 351.081268,501.849854 352.159546,502.521667 
	C351.757324,503.490448 351.178894,504.170685 350.078766,504.929413 
	C349.379608,505.001709 349.202118,504.995544 349.024658,504.989349 
z"/>
<path fill="#01C6AF" opacity="1.000000" stroke="none" 
	d="
M377.373444,120.219543 
	C377.064514,115.187439 377.057678,109.809631 377.058990,103.923637 
	C377.269958,108.901581 377.472717,114.387703 377.373444,120.219543 
z"/>
<path fill="#029FD5" opacity="1.000000" stroke="none" 
	d="
M492.346313,361.901001 
	C493.157074,360.747223 494.256592,359.462860 495.698853,358.117065 
	C494.906097,359.293884 493.770630,360.532166 492.346313,361.901001 
z"/>
<path fill="#01ADC6" opacity="1.000000" stroke="none" 
	d="
M170.130829,249.300522 
	C170.804840,249.634705 171.638947,250.229889 172.608124,251.120514 
	C171.925766,250.797836 171.108322,250.179688 170.130829,249.300522 
z"/>
<path fill="#018EE6" opacity="1.000000" stroke="none" 
	d="
M372.139862,437.618530 
	C371.711151,437.293945 371.226654,436.675842 370.672485,435.755981 
	C371.096558,436.077850 371.590332,436.701447 372.139862,437.618530 
z"/>
<path fill="#0186ED" opacity="1.000000" stroke="none" 
	d="
M220.610382,431.117249 
	C220.517502,431.534576 220.152206,432.094757 219.563416,432.720398 
	C219.672607,432.277283 220.005280,431.768677 220.610382,431.117249 
z"/>
<path fill="#01C6AF" opacity="1.000000" stroke="none" 
	d="
M376.337463,125.069916 
	C376.343079,124.417870 376.580200,123.473969 376.980347,122.197433 
	C376.951935,122.835884 376.760468,123.806969 376.337463,125.069916 
z"/>
<path fill="#01A7CB" opacity="1.000000" stroke="none" 
	d="
M521.319946,318.366516 
	C521.312744,317.948029 521.593506,317.303131 522.049500,316.351196 
	C522.019104,316.742798 521.813477,317.441437 521.319946,318.366516 
z"/>
<path fill="#018EE6" opacity="1.000000" stroke="none" 
	d="
M373.243591,440.146851 
	C372.899414,439.863434 372.622437,439.187134 372.198608,438.174500 
	C372.471436,438.476746 372.891144,439.115387 373.243591,440.146851 
z"/>
<path fill="#0186ED" opacity="1.000000" stroke="none" 
	d="
M375.253418,474.853394 
	C375.217499,474.529572 375.404633,474.030457 375.712555,473.293549 
	C375.714386,473.596497 375.595459,474.137299 375.253418,474.853394 
z"/>
<path fill="#02A1D1" opacity="1.000000" stroke="none" 
	d="
M188.242584,362.638184 
	C187.975601,362.502960 187.626617,362.100983 187.137268,361.474457 
	C187.384781,361.623779 187.772675,361.997589 188.242584,362.638184 
z"/>
<path fill="#01ADC6" opacity="1.000000" stroke="none" 
	d="
M412.286072,254.232361 
	C412.420746,253.927139 412.843719,253.585709 413.492249,253.095001 
	C413.336670,253.362518 412.955536,253.779327 412.286072,254.232361 
z"/>
<path fill="#00CDA9" opacity="1.000000" stroke="none" 
	d="
M370.111633,87.749962 
	C369.849945,87.612892 369.552063,87.211815 369.133057,86.593552 
	C369.366394,86.746223 369.720917,87.116089 370.111633,87.749962 
z"/>
<path fill="#0186ED" opacity="1.000000" stroke="none" 
	d="
M213.879120,477.295441 
	C213.992554,477.241913 214.107666,477.448944 214.197083,477.797333 
	C214.217590,477.913574 213.926971,477.530884 213.879120,477.295441 
z"/>
<path fill="#0181F2" opacity="1.000000" stroke="none" 
	d="
M349.026001,505.257111 
	C349.202118,504.995544 349.379608,505.001709 349.823242,505.021240 
	C349.904358,505.316254 349.719299,505.597900 349.293274,505.969696 
	C349.044006,505.881470 349.035706,505.703156 349.026001,505.257111 
z"/>
<path fill="#0181F2" opacity="1.000000" stroke="none" 
	d="
M344.281006,510.942017 
	C344.243500,510.786713 344.452606,510.556091 344.846985,510.179321 
	C344.969879,510.371002 344.801666,510.648834 344.281006,510.942017 
z"/>
<path fill="#0181F2" opacity="1.000000" stroke="none" 
	d="
M346.257935,508.893982 
	C346.243530,508.753387 346.473236,508.508301 346.885620,508.080383 
	C346.879547,508.194885 346.690796,508.492218 346.257935,508.893982 
z"/>
<path fill="#0181F2" opacity="1.000000" stroke="none" 
	d="
M353.038666,502.088104 
	C353.036743,501.927643 353.335114,501.673431 353.849548,501.231506 
	C353.823395,501.360687 353.581177,501.677521 353.038666,502.088104 
z"/>
<path fill="#0186ED" opacity="1.000000" stroke="none" 
	d="
M211.183441,470.260223 
	C211.294388,470.243561 211.339691,470.457367 211.332733,470.788391 
	C211.323318,470.896881 211.160690,470.481903 211.183441,470.260223 
z"/>
<path fill="#0186ED" opacity="1.000000" stroke="none" 
	d="
M374.845825,475.710754 
	C374.725128,475.670441 374.789398,475.440948 374.968689,475.123718 
	C375.033905,475.021698 374.980927,475.507294 374.845825,475.710754 
z"/>
<path fill="#0186ED" opacity="1.000000" stroke="none" 
	d="
M215.982391,481.356812 
	C216.147018,481.314819 216.385239,481.552917 216.810486,481.955597 
	C216.683655,481.959076 216.369812,481.798004 215.982391,481.356812 
z"/>
<path fill="#0186ED" opacity="1.000000" stroke="none" 
	d="
M216.638580,482.412018 
	C216.763443,482.323090 216.921341,482.503479 217.068726,482.832672 
	C217.102676,482.944336 216.716064,482.644165 216.638580,482.412018 
z"/>
<path fill="#0181F2" opacity="1.000000" stroke="none" 
	d="
M347.984802,506.296753 
	C348.162140,506.035889 348.341827,506.036377 348.790802,506.047211 
	C348.871368,506.342407 348.682678,506.627228 348.243591,506.996399 
	C347.991211,506.906494 347.989197,506.732300 347.984802,506.296753 
z"/>
<path fill="#0181F2" opacity="1.000000" stroke="none" 
	d="
M229.043762,496.284271 
	C229.209717,496.246674 229.439301,496.468353 229.818726,496.879547 
	C229.692230,496.882782 229.405167,496.707611 229.043762,496.284271 
z"/>
<path fill="#0181F2" opacity="1.000000" stroke="none" 
	d="
M358.263702,496.922668 
	C358.229492,496.767212 358.444794,496.542572 358.847290,496.174988 
	C358.848358,496.294037 358.674622,496.567871 358.263702,496.922668 
z"/>
<path fill="#0181F2" opacity="1.000000" stroke="none" 
	d="
M230.039841,497.252441 
	C230.186783,497.224091 230.423309,497.440857 230.813599,497.843811 
	C230.698517,497.841064 230.419205,497.663574 230.039841,497.252441 
z"/>
<path fill="#0181F2" opacity="1.000000" stroke="none" 
	d="
M357.260559,497.937897 
	C357.222565,497.776947 357.434967,497.551086 357.832092,497.181152 
	C357.835938,497.304199 357.667328,497.582825 357.260559,497.937897 
z"/>
<path fill="#0292DD" opacity="1.000000" stroke="none" 
	d="
M249.730133,401.955780 
	C249.741165,402.123718 249.473907,402.361694 248.994522,402.762939 
	C249.005539,402.626068 249.228699,402.325928 249.730133,401.955780 
z"/>
<path fill="#01D4A2" opacity="1.000000" stroke="none" 
	d="
M249.663177,55.050812 
	C249.696777,55.204830 249.482132,55.437710 249.092880,55.834461 
	C249.090515,55.714943 249.256058,55.425388 249.663177,55.050812 
z"/>
<path fill="#01D4A2" opacity="1.000000" stroke="none" 
	d="
M248.726837,55.999550 
	C248.766312,56.171051 248.536087,56.411446 248.111801,56.811378 
	C248.107559,56.679707 248.287354,56.378876 248.726837,55.999550 
z"/>
<path fill="#01ADC6" opacity="1.000000" stroke="none" 
	d="
M417.269897,249.799484 
	C417.265259,249.664551 417.491241,249.477158 417.899902,249.164734 
	C417.968933,249.339279 417.774933,249.575058 417.269897,249.799484 
z"/>
<path fill="#01A7CB" opacity="1.000000" stroke="none" 
	d="
M445.783020,316.162781 
	C445.814880,316.297607 445.631927,316.501129 445.292145,316.837524 
	C445.184937,316.671692 445.329224,316.425354 445.783020,316.162781 
z"/>
<path fill="#029FD5" opacity="1.000000" stroke="none" 
	d="
M491.280762,362.830200 
	C491.249298,362.649261 491.469482,362.463165 491.873444,362.160522 
	C492.009674,362.385345 491.834686,362.645691 491.280762,362.830200 
z"/>
<path fill="#0198DC" opacity="1.000000" stroke="none" 
	d="
M466.300659,387.987030 
	C466.270569,387.833801 466.488953,387.605835 466.888855,387.225769 
	C466.887970,387.344849 466.714233,387.624420 466.300659,387.987030 
z"/>
<path fill="#0292DD" opacity="1.000000" stroke="none" 
	d="
M337.025818,400.730286 
	C336.863525,400.757812 336.607635,400.520355 336.175476,400.088715 
	C336.310181,400.084808 336.621155,400.275055 337.025818,400.730286 
z"/>
<path fill="#0292DD" opacity="1.000000" stroke="none" 
	d="
M338.034454,401.720032 
	C337.865234,401.751038 337.610535,401.510559 337.178833,401.074982 
	C337.317505,401.069427 337.633240,401.258972 338.034454,401.720032 
z"/>
<path fill="#0292DD" opacity="1.000000" stroke="none" 
	d="
M237.667755,413.877441 
	C237.668777,414.018341 237.411392,414.288513 236.942780,414.741516 
	C236.957489,414.618469 237.183426,414.312592 237.667755,413.877441 
z"/>
<path fill="#0292DD" opacity="1.000000" stroke="none" 
	d="
M339.080872,402.671906 
	C338.925568,402.705688 338.650940,402.482574 338.182861,402.077484 
	C338.313446,402.068695 338.637512,402.241852 339.080872,402.671906 
z"/>
<path fill="#0292DD" opacity="1.000000" stroke="none" 
	d="
M247.661179,403.895264 
	C247.665543,404.038544 247.411621,404.305115 246.949310,404.753052 
	C246.961563,404.629089 247.182236,404.323822 247.661179,403.895264 
z"/>
<path fill="#0292DD" opacity="1.000000" stroke="none" 
	d="
M341.051453,404.695312 
	C340.906311,404.703918 340.649292,404.457855 340.219666,404.008179 
	C340.344604,404.016571 340.642090,404.228607 341.051453,404.695312 
z"/>
<path fill="#0292DD" opacity="1.000000" stroke="none" 
	d="
M245.664307,405.895508 
	C245.699539,406.050262 245.477615,406.330780 245.076797,406.810425 
	C245.067642,406.680145 245.237411,406.350708 245.664307,405.895508 
z"/>
<path fill="#0292DD" opacity="1.000000" stroke="none" 
	d="
M244.733337,406.951660 
	C244.748428,407.120422 244.489532,407.356476 244.026489,407.756195 
	C244.034668,407.619537 244.247009,407.319244 244.733337,406.951660 
z"/>
<path fill="#0292DD" opacity="1.000000" stroke="none" 
	d="
M242.660370,408.883728 
	C242.664032,409.022156 242.416077,409.292419 241.963440,409.746307 
	C241.975403,409.625122 242.192062,409.320343 242.660370,408.883728 
z"/>
<path fill="#0292DD" opacity="1.000000" stroke="none" 
	d="
M240.667267,410.923767 
	C240.700409,411.076935 240.479248,411.349823 240.079147,411.816223 
	C240.071136,411.687622 240.242050,411.365570 240.667267,410.923767 
z"/>
<path fill="#0292DD" opacity="1.000000" stroke="none" 
	d="
M239.730560,411.967560 
	C239.740387,412.132751 239.474075,412.371613 238.994949,412.773193 
	C239.006241,412.637695 239.230331,412.339447 239.730560,411.967560 
z"/>
<path fill="#01A7CB" opacity="1.000000" stroke="none" 
	d="
M516.166077,314.279541 
	C516.094666,314.477264 515.951965,314.611328 515.809265,314.745392 
	C515.904419,314.568878 515.999573,314.392365 516.166077,314.279541 
z"/>
</svg>