<svg width="732" height="738" viewBox="0 0 732 738" fill="none" xmlns="http://www.w3.org/2000/svg">
<path d="M466.787 631.119C354.11 632.337 56.3307 545.959 19.0282 480.754C-18.2744 415.548 175.119 384.785 287.735 318.132C400.351 251.48 502.889 128.16 559.585 160.821C616.282 193.482 579.211 376.927 559.878 474.906C540.545 572.884 579.465 629.901 466.787 631.119ZM466.787 631.119C354.11 632.337 56.3307 545.959 19.0282 480.754" stroke="#CBD5E1" stroke-width="2"/>
<path d="M462.188 619.193C354.632 620.356 70.3883 537.905 34.7813 475.663C-0.825682 413.421 183.777 384.056 291.274 320.433C398.771 256.81 496.648 139.096 550.767 170.272C604.887 201.449 569.501 376.555 551.047 470.08C532.593 563.606 569.743 618.03 462.188 619.193ZM462.188 619.193C354.632 620.356 70.3883 537.905 34.7813 475.663" stroke="#CBD5E1" stroke-width="2"/>
<path d="M457.588 607.267C355.155 608.375 84.4458 529.85 50.5344 470.572C16.623 411.294 192.435 383.327 294.813 322.734C397.192 262.141 490.408 150.032 541.95 179.724C593.492 209.416 559.792 376.184 542.216 465.255C524.641 554.327 560.022 606.16 457.588 607.267ZM457.588 607.267C355.155 608.375 84.4458 529.85 50.5344 470.572" stroke="#CBD5E1" stroke-width="2"/>
<path d="M452.989 595.341C355.677 596.393 98.5034 521.794 66.2875 465.48C34.0717 409.167 201.093 382.598 298.353 325.034C395.612 267.471 484.167 160.967 533.132 189.175C582.097 217.382 550.082 375.812 533.385 460.43C516.689 545.048 550.301 594.289 452.989 595.341ZM452.989 595.341C355.677 596.393 98.5034 521.794 66.2875 465.48" stroke="#CBD5E1" stroke-width="2"/>
<path d="M448.389 583.415C356.199 584.412 112.561 513.739 82.0406 460.389C51.5203 407.039 209.751 381.869 301.892 327.335C394.032 272.801 477.926 171.903 524.314 198.626C570.702 225.349 540.372 375.44 524.554 455.604C508.736 535.769 540.579 582.419 448.389 583.415ZM448.389 583.415C356.199 584.412 112.561 513.739 82.0406 460.389" stroke="#CBD5E1" stroke-width="2"/>
<path d="M443.789 571.49C356.721 572.431 126.618 505.685 97.7937 455.298C68.969 404.912 218.409 381.141 305.431 329.636C392.452 278.132 471.686 182.839 515.497 208.078C559.308 233.316 530.662 375.068 515.723 450.779C500.784 526.49 530.858 570.548 443.789 571.49ZM443.789 571.49C356.721 572.431 126.618 505.685 97.7937 455.298" stroke="#CBD5E1" stroke-width="2"/>
<path d="M439.19 559.563C357.243 560.449 140.676 497.629 113.547 450.207C86.4177 402.785 227.068 380.411 308.97 331.937C390.873 283.462 465.445 193.775 506.679 217.528C547.913 241.282 520.953 374.696 506.892 445.954C492.832 517.211 521.137 558.677 439.19 559.563ZM439.19 559.563C357.243 560.449 140.676 497.629 113.547 450.207" stroke="#CBD5E1" stroke-width="2"/>
<path d="M434.59 547.638C357.765 548.468 154.733 489.574 129.3 445.116C103.866 400.658 235.726 379.683 312.509 334.238C389.293 288.793 459.205 204.711 497.861 226.98C536.518 249.249 511.243 374.325 498.061 441.128C484.88 507.932 511.416 546.807 434.59 547.638ZM434.59 547.638C357.765 548.468 154.733 489.574 129.3 445.116" stroke="#CBD5E1" stroke-width="2"/>
<path d="M429.991 535.712C358.287 536.487 168.791 481.519 145.053 440.025C121.315 398.53 244.384 378.954 316.048 336.538C387.713 294.123 452.964 215.647 489.044 236.431C525.123 257.216 501.533 373.953 489.23 436.303C476.928 498.653 501.694 534.937 429.991 535.712ZM429.991 535.712C358.287 536.487 168.791 481.519 145.053 440.025" stroke="#CBD5E1" stroke-width="2"/>
<path d="M425.391 523.786C358.809 524.506 182.848 473.465 160.806 434.934C138.764 396.403 253.042 378.225 319.588 338.839C386.133 299.454 446.724 226.583 480.226 245.883C513.729 265.182 491.823 373.582 480.399 431.478C468.975 489.375 491.973 523.066 425.391 523.786ZM425.391 523.786C358.809 524.506 182.848 473.465 160.806 434.934" stroke="#CBD5E1" stroke-width="2"/>
<path d="M420.792 511.86C359.331 512.524 196.906 465.409 176.559 429.842C156.212 394.276 261.7 377.496 323.127 341.14C384.554 304.784 440.483 237.518 471.408 255.334C502.334 273.149 482.114 373.21 471.568 426.652C461.023 480.095 482.252 511.195 420.792 511.86ZM420.792 511.86C359.331 512.524 196.906 465.409 176.559 429.842" stroke="#CBD5E1" stroke-width="2"/>
<path d="M416.192 499.934C359.853 500.543 210.964 457.354 192.312 424.751C173.661 392.149 270.358 376.767 326.666 343.441C382.974 310.114 434.243 248.454 462.591 264.785C490.939 281.116 472.404 372.838 462.737 421.827C453.071 470.817 472.53 499.325 416.192 499.934ZM416.192 499.934C359.853 500.543 210.964 457.354 192.312 424.751" stroke="#CBD5E1" stroke-width="2"/>
<path d="M411.592 488.008C360.376 488.562 225.021 449.299 208.066 419.66C191.11 390.022 279.016 376.038 330.205 345.742C381.394 315.445 428.002 259.39 453.773 274.236C479.544 289.082 462.694 372.466 453.906 417.002C445.119 461.538 462.809 487.454 411.592 488.008ZM411.592 488.008C360.376 488.562 225.021 449.299 208.066 419.66" stroke="#CBD5E1" stroke-width="2"/>
<path d="M406.993 476.082C360.898 476.58 239.079 441.244 223.819 414.569C208.559 387.894 287.674 375.309 333.744 348.042C379.814 320.775 421.762 270.326 444.956 283.687C468.15 297.049 452.984 372.094 445.075 412.177C437.167 452.259 453.088 475.584 406.993 476.082ZM406.993 476.082C360.898 476.58 239.079 441.244 223.819 414.569" stroke="#CBD5E1" stroke-width="2"/>
<path d="M402.393 464.156C361.42 464.599 253.136 433.189 239.572 409.478C226.007 385.767 296.332 374.58 337.283 350.343C378.235 326.105 415.521 281.262 436.138 293.139C456.755 305.016 443.275 371.723 436.244 407.351C429.214 442.98 443.367 463.713 402.393 464.156ZM402.393 464.156C361.42 464.599 253.136 433.189 239.572 409.478" stroke="#CBD5E1" stroke-width="2"/>
<path d="M397.794 452.23C361.942 452.618 267.194 425.134 255.325 404.387C243.456 383.64 304.99 373.851 340.823 352.644C376.655 331.436 409.28 292.198 427.32 302.59C445.36 312.982 433.565 371.351 427.413 402.526C421.262 433.701 433.646 451.843 397.794 452.23ZM397.794 452.23C361.942 452.618 267.194 425.134 255.325 404.387" stroke="#CBD5E1" stroke-width="2"/>
<path d="M393.194 440.305C362.464 440.637 281.251 417.079 271.078 399.296C260.905 381.513 313.648 373.123 344.362 354.945C375.075 336.767 403.04 303.134 418.503 312.042C433.965 320.949 423.855 370.979 418.583 397.701C413.31 424.422 423.924 439.972 393.194 440.305ZM393.194 440.305C362.464 440.637 281.251 417.079 271.078 399.296" stroke="#CBD5E1" stroke-width="2"/>
<path d="M388.595 428.378C362.986 428.655 295.309 409.024 286.831 394.204C278.353 379.385 322.306 372.393 347.901 357.245C373.495 342.097 396.799 314.069 409.685 321.492C422.57 328.915 414.145 370.607 409.752 392.875C405.358 415.143 414.203 428.101 388.595 428.378ZM388.595 428.378C362.986 428.655 295.309 409.024 286.831 394.204" stroke="#CBD5E1" stroke-width="2"/>
<path d="M383.995 416.453C363.508 416.674 309.366 400.969 302.584 389.114C295.802 377.258 330.964 371.665 351.44 359.546C371.916 347.427 390.559 325.005 400.867 330.944C411.176 336.882 404.436 370.236 400.921 388.05C397.405 405.865 404.482 416.231 383.995 416.453ZM383.995 416.453C363.508 416.674 309.366 400.969 302.584 389.114" stroke="#CBD5E1" stroke-width="2"/>
<path d="M379.395 404.527C364.03 404.693 323.424 392.914 318.337 384.022C313.251 375.131 339.622 370.936 354.979 361.847C370.336 352.758 384.318 335.942 392.05 340.395C399.781 344.849 394.726 369.864 392.09 383.225C389.453 396.586 394.76 404.361 379.395 404.527ZM379.395 404.527C364.03 404.693 323.424 392.914 318.337 384.022" stroke="#CBD5E1" stroke-width="2"/>
<path d="M374.796 392.601C364.552 392.712 337.482 384.859 334.09 378.931C330.699 373.004 348.281 370.207 358.518 364.148C368.756 358.088 378.078 346.877 383.232 349.847C388.386 352.816 385.016 369.493 383.259 378.4C381.501 387.307 385.039 392.49 374.796 392.601ZM374.796 392.601C364.552 392.712 337.482 384.859 334.09 378.931" stroke="#CBD5E1" stroke-width="2"/>
<path d="M370.196 380.675C365.075 380.73 351.539 376.804 349.844 373.84C348.148 370.876 356.939 369.478 362.058 366.448C367.176 363.418 371.837 357.813 374.414 359.298C376.991 360.782 375.306 369.121 374.428 373.574C373.549 378.028 375.318 380.619 370.196 380.675ZM370.196 380.675C365.075 380.73 351.539 376.804 349.844 373.84" stroke="#CBD5E1" stroke-width="2"/>
</svg>
